<?xml version="1.0" encoding="UTF-8" standalone="no"?>
<!-- Created with Inkscape (http://www.inkscape.org/) -->

<svg
   width="81.204674mm"
   height="77.116791mm"
   viewBox="0 0 81.204674 77.116791"
   version="1.1"
   id="svg1"
   xml:space="preserve"
   inkscape:version="1.4 (1:1.4+202410161351+e7c3feb100)"
   sodipodi:docname="support-students.svg"
   xmlns:inkscape="http://www.inkscape.org/namespaces/inkscape"
   xmlns:sodipodi="http://sodipodi.sourceforge.net/DTD/sodipodi-0.dtd"
   xmlns="http://www.w3.org/2000/svg"
   xmlns:svg="http://www.w3.org/2000/svg"><sodipodi:namedview
     id="namedview1"
     pagecolor="#ffffff"
     bordercolor="#000000"
     borderopacity="0.25"
     inkscape:showpageshadow="2"
     inkscape:pageopacity="0.0"
     inkscape:pagecheckerboard="0"
     inkscape:deskcolor="#d1d1d1"
     inkscape:document-units="mm"
     inkscape:zoom="0.71856615"
     inkscape:cx="150.99514"
     inkscape:cy="226.84063"
     inkscape:window-width="1680"
     inkscape:window-height="981"
     inkscape:window-x="0"
     inkscape:window-y="32"
     inkscape:window-maximized="1"
     inkscape:current-layer="layer1" /><defs
     id="defs1"><inkscape:path-effect
       effect="fillet_chamfer"
       id="path-effect6"
       is_visible="true"
       lpeversion="1"
       nodesatellites_param="F,0,0,1,0,1.3229166,0,1 @ F,0,0,1,0,1.3229166,0,1 @ F,0,0,1,0,1.3229166,0,1 @ F,0,0,1,0,1.3229166,0,1 @ F,0,0,1,0,1.3229166,0,1 @ F,0,0,1,0,1.3229166,0,1 @ F,0,0,1,0,1.3229166,0,1 @ F,0,0,1,0,1.3229166,0,1 @ F,0,0,1,0,1.3229166,0,1 @ F,0,0,1,0,1.3229166,0,1 @ F,0,0,1,0,1.3229166,0,1 @ F,0,0,1,0,1.3229166,0,1 @ F,0,0,1,0,1.3229166,0,1 @ F,0,0,1,0,1.3229166,0,1 @ F,0,0,1,0,1.3229166,0,1 @ F,0,0,1,0,1.3229166,0,1 @ F,0,0,1,0,1.3229166,0,1 @ F,0,0,1,0,1.3229166,0,1 @ F,0,0,1,0,1.3229166,0,1 @ F,0,0,1,0,1.3229166,0,1 @ F,0,0,1,0,1.3229166,0,1 @ F,0,0,1,0,1.3229166,0,1"
       radius="5"
       unit="px"
       method="auto"
       mode="F"
       chamfer_steps="1"
       flexible="false"
       use_knot_distance="true"
       apply_no_radius="true"
       apply_with_radius="true"
       only_selected="false"
       hide_knots="false" /><inkscape:path-effect
       effect="fillet_chamfer"
       id="path-effect4"
       is_visible="true"
       lpeversion="1"
       nodesatellites_param="F,0,0,1,0,1.3229166,0,1 @ F,0,0,1,0,1.3229166,0,1 @ F,0,0,1,0,1.3229166,0,1 @ F,0,0,1,0,1.3229166,0,1 @ F,0,0,1,0,1.3229166,0,1 @ F,0,0,1,0,1.3229166,0,1 @ F,0,0,1,0,1.3229166,0,1 @ F,0,0,1,0,1.3229166,0,1 @ F,0,0,1,0,1.3229166,0,1 @ F,0,0,1,0,1.3229166,0,1 @ F,0,0,1,0,1.3229166,0,1 @ F,0,0,1,0,1.3229166,0,1 @ F,0,0,1,0,1.3229166,0,1 @ F,0,0,1,0,1.3229166,0,1 @ F,0,0,1,0,1.3229166,0,1 @ F,0,0,1,0,1.3229166,0,1 @ F,0,0,1,0,1.3229166,0,1 @ F,0,0,1,0,1.3229166,0,1 @ F,0,0,1,0,1.3229166,0,1 @ F,0,0,1,0,1.3229166,0,1 @ F,0,0,1,0,1.3229166,0,1 @ F,0,0,1,0,1.3229166,0,1"
       radius="5"
       unit="px"
       method="auto"
       mode="F"
       chamfer_steps="1"
       flexible="false"
       use_knot_distance="true"
       apply_no_radius="true"
       apply_with_radius="true"
       only_selected="false"
       hide_knots="false" /></defs><g
     inkscape:label="Layer 1"
     inkscape:groupmode="layer"
     id="layer1"
     transform="translate(-53.897323,-44.13976)"><g
       id="student-support"><g
         id="student-hat"><path
           id="rect4"
           style="opacity:1;fill:#276eb7;stroke-width:2.3;paint-order:fill markers stroke"
           d="m 71.209518,71.209526 h 45.693862 v 10.544737 c -17.657646,10.514219 -32.175671,7.423419 -45.693862,0 z"
           sodipodi:nodetypes="ccccc" /><rect
           style="opacity:1;fill:#3396dc;fill-opacity:1;stroke-width:2.57536;paint-order:fill markers stroke"
           id="rect1"
           width="45.349445"
           height="45.349445"
           x="102.32257"
           y="-3.2257199"
           transform="matrix(0.89532154,0.44542041,-0.89532154,0.44542041,0,0)" /><rect
           style="opacity:1;fill:#3396dc;fill-opacity:1;stroke-width:2.3;paint-order:fill markers stroke"
           id="rect2"
           width="2.7615759"
           height="24.670078"
           x="61.675194"
           y="65.357292" /><path
           id="rect3"
           style="opacity:1;fill:#3396dc;stroke-width:2.30001;paint-order:fill markers stroke"
           d="m 60.01825,79.901588 c 2.689449,-3.764328 4.407105,-2.021829 6.075467,0 v 11.96683 H 60.01825 Z"
           sodipodi:nodetypes="ccccc" /></g><g
         id="hand"
         transform="translate(-1.4728405,-22.460818)"><path
           style="opacity:1;fill:#f1a71f;fill-opacity:1;stroke-width:2.3;paint-order:fill markers stroke"
           d="m 68.436801,107.65126 -6.4313,-6.23032 a 1.3178682,1.3178682 89.200152 0 1 -0.02607,-1.867126 l 3.489248,-3.574355 a 1.4805041,1.4805041 176.09233 0 1 1.968352,-0.134454 l 0.254783,0.198164 a 1.4867379,1.4867379 176.21191 0 0 1.972296,-0.130588 l 6.345363,-6.446085 a 4.1004319,4.1004319 152.43004 0 1 2.232096,-1.165422 l 8.066825,-1.377261 a 11.835786,11.835786 176.68885 0 1 2.625069,-0.151873 l 11.938334,0.639552 a 0.80066245,0.80066245 61.883097 0 1 0.64562,1.208285 l -1.12266,1.89079 a 2.3240163,2.3240163 150.34986 0 1 -1.998313,1.137516 h -8.289448 a 2.054496,2.054496 147.22199 0 0 -1.870344,1.204339 l -0.206967,0.455325 a 1.7353689,1.7353689 77.124769 0 0 0.468866,2.051249 l 1.091781,0.909818 a 3.5802066,3.5802066 19.525861 0 0 2.339095,0.829505 l 7.248228,-0.09537 a 3.5783828,3.5783828 158.95697 0 0 2.316172,-0.891091 l 8.81836,-7.755911 a 3.7062913,3.7062913 158.3112 0 1 2.31544,-0.920902 l 1.00095,-0.03575 c 0.73016,-0.02608 1.77081,0.34743 2.21912,0.923543 0.40143,0.515869 0.029,1.570045 -0.44421,2.126636 -1.50602,1.771217 -4.59258,5.352268 -6.09794,7.09717 -0.47706,0.552978 -1.31296,1.387397 -1.86678,1.863942 l -3.59226,3.091012 a 4.1307448,4.1307448 157.04736 0 1 -2.32026,0.98263 l -8.821046,0.80191 A 78.511166,78.511166 173.84025 0 0 90.075019,104.57 l -3.623331,0.45292 a 5.0280018,5.0280018 158.13392 0 0 -2.374664,0.95298 l -2.432443,1.80695 a 1.5018555,1.5018555 102.01757 0 0 -0.413387,1.94191 1.4998099,1.4998099 104.18497 0 1 -0.459061,1.8162 l -3.373213,3.04411 a 1.4055926,1.4055926 1.2001141 0 1 -1.926269,-0.0404 l -5.141533,-5.04632 a 405.42256,405.42256 44.277578 0 0 -1.894317,-1.84714 z"
           id="path5"
           inkscape:path-effect="#path-effect6"
           inkscape:original-d="m 69.386973,108.57174 -8.331644,-8.07128 5.337458,-5.467647 2.343277,1.822548 8.201461,-8.331645 10.674919,-1.822545 14.580376,0.78109 -2.473456,4.165822 H 88.784082 l -1.301821,2.864003 3.124367,2.603638 9.893832,-0.13018 10.8051,-9.503283 3.64509,-0.13018 c 0,0 1.69237,1.562182 1.30182,2.082911 -0.39055,0.520726 -7.81092,9.112734 -7.81092,9.112734 l -5.59782,4.816734 -11.45601,1.04145 -6.248733,0.7811 -4.556369,3.38473 1.171639,2.08291 -5.337461,4.81673 z"
           transform="translate(5.4676414,28.770208)" /><path
           style="opacity:1;fill:#f4bd15;fill-opacity:1;stroke-width:2.3;paint-order:fill markers stroke"
           d="m 68.436801,107.65126 -6.4313,-6.23032 a 1.3178682,1.3178682 89.200152 0 1 -0.02607,-1.867126 l 3.489248,-3.574355 a 1.4805041,1.4805041 176.09233 0 1 1.968352,-0.134454 l 0.254783,0.198164 a 1.4867379,1.4867379 176.21191 0 0 1.972296,-0.130588 l 6.345363,-6.446085 a 4.1004319,4.1004319 152.43004 0 1 2.232096,-1.165422 l 8.066825,-1.377261 a 11.835786,11.835786 176.68885 0 1 2.625069,-0.151873 l 11.938334,0.639552 a 0.80066245,0.80066245 61.883097 0 1 0.64562,1.208285 l -1.12266,1.89079 a 2.3240163,2.3240163 150.34986 0 1 -1.998313,1.137516 h -8.289448 a 2.054496,2.054496 147.22199 0 0 -1.870344,1.204339 l -0.206967,0.455325 a 1.7353689,1.7353689 77.124769 0 0 0.468866,2.051249 l 1.091781,0.909818 a 3.5802066,3.5802066 19.525861 0 0 2.339095,0.829505 l 7.248228,-0.09537 a 3.5783828,3.5783828 158.95697 0 0 2.316172,-0.891091 l 8.81836,-7.755911 a 3.7062913,3.7062913 158.3112 0 1 2.31544,-0.920902 l 1.00095,-0.03575 c 0.73016,-0.02608 1.77081,0.34743 2.21912,0.923543 0.40143,0.515869 0.029,1.570045 -0.44421,2.126636 -1.50602,1.771217 -4.59258,5.352268 -6.09794,7.09717 -0.47706,0.552978 -1.31296,1.387397 -1.86678,1.863942 l -3.59226,3.091012 a 4.1307448,4.1307448 157.04736 0 1 -2.32026,0.98263 l -8.821046,0.80191 A 78.511166,78.511166 173.84025 0 0 90.075019,104.57 l -3.623331,0.45292 a 5.0280018,5.0280018 158.13392 0 0 -2.374664,0.95298 l -2.432443,1.80695 a 1.5018555,1.5018555 102.01757 0 0 -0.413387,1.94191 1.4998099,1.4998099 104.18497 0 1 -0.459061,1.8162 l -3.373213,3.04411 a 1.4055926,1.4055926 1.2001141 0 1 -1.926269,-0.0404 l -5.141533,-5.04632 a 405.42256,405.42256 44.277578 0 0 -1.894317,-1.84714 z"
           id="path4"
           inkscape:path-effect="#path-effect4"
           inkscape:original-d="m 69.386973,108.57174 -8.331644,-8.07128 5.337458,-5.467647 2.343277,1.822548 8.201461,-8.331645 10.674919,-1.822545 14.580376,0.78109 -2.473456,4.165822 H 88.784082 l -1.301821,2.864003 3.124367,2.603638 9.893832,-0.13018 10.8051,-9.503283 3.64509,-0.13018 c 0,0 1.69237,1.562182 1.30182,2.082911 -0.39055,0.520726 -7.81092,9.112734 -7.81092,9.112734 l -5.59782,4.816734 -11.45601,1.04145 -6.248733,0.7811 -4.556369,3.38473 1.171639,2.08291 -5.337461,4.81673 z"
           transform="translate(4.9469136,27.598571)" /></g></g></g></svg>
